<?xml version="1.0" encoding="UTF-8"?>
<svg id="Layer_1" data-name="Layer 1" xmlns="http://www.w3.org/2000/svg" viewBox="0 0 2466 422">
  <defs>
    <style>
      .cls-1 {
        fill: #fff;
        stroke-width: 0px;
      }
    </style>
  </defs>
  <path class="cls-1" d="m2450.72,81.74h-.45.45Z"/>
  <g>
    <g>
      <polygon class="cls-1" points="906.03 235.81 972.72 138.84 921.43 138.84 878.08 203.7 834.73 138.84 783.31 138.84 850.13 234.47 778.42 337.84 829.4 337.84 877.58 266.74 926.44 337.84 977.87 337.84 906.03 235.81"/>
      <path class="cls-1" d="m431.6,233.62c0-60.1-36.22-98.94-92.29-98.94s-94.05,43.89-94.05,102.09,38.5,100.69,95.8,100.69c42.71,0,76.37-23.86,87.85-62.27l1.8-6-6.09-1.43-26.94-6.3-5.72-1.34-1.35,5.72c-5,21.14-24.77,35.35-49.2,35.35-33.33,0-53.4-18.69-55.79-51.54h145.99v-16.03Zm-144.85-18.13c4.75-29.05,29.25-44.2,52.56-44.2s47.44,11.75,51.65,44.2h-104.21Z"/>
      <polygon class="cls-1" points="556.56 297.35 525.72 297.35 525.72 64.66 525.72 58.77 519.83 58.77 455.47 58.77 449.58 58.77 449.58 64.66 449.58 88.44 449.58 94.33 455.47 94.33 486.31 94.33 486.31 297.35 455.47 297.35 449.58 297.35 449.58 303.24 449.58 327.03 449.58 332.91 455.47 332.91 556.56 332.91 562.45 332.91 562.45 327.03 562.45 303.24 562.45 297.35 556.56 297.35"/>
      <path class="cls-1" d="m750.03,139.23h-33.52v115.03c0,26.36-19.43,46.24-45.19,46.24-23.75,0-40.99-17.68-40.99-42.04v-119.23h-39.41v120.28c0,45.9,30.33,77.95,73.76,77.95,23.95,0,41.27-9.76,51.84-21.19v16.64h39.41v-193.68h-5.89Z"/>
      <path class="cls-1" d="m1168.07,233.62c0-60.1-36.22-98.94-92.29-98.94s-94.04,43.89-94.04,102.09,38.49,100.69,95.79,100.69c42.71,0,76.37-23.86,87.85-62.27l1.8-6-6.09-1.43-26.93-6.3-5.72-1.34-1.35,5.72c-4.99,21.14-24.77,35.35-49.2,35.35-33.33,0-53.41-18.69-55.79-51.54h145.99v-16.03Zm-144.84-18.13c4.74-29.05,29.25-44.2,52.55-44.2s47.45,11.75,51.65,44.2h-104.21Z"/>
      <path class="cls-1" d="m211.54,58.84v-.07h-39.42v100.93c-10.3-11.24-28.95-25.02-58.47-25.02-54.55,0-92.65,41.83-92.65,101.74s39.84,101.04,94.74,101.04c23.15,0,42.42-8.31,57.43-24.74v20.2h38.37V94.32h36.78v-35.48h-36.78Zm-94.06,242.01c-33.2,0-56.38-26.35-56.38-64.08s22.9-65.13,55.68-65.13,56.38,26.17,56.38,65.13c0,31.84-19.13,64.08-55.68,64.08Z"/>
    </g>
    <g>
      <path class="cls-1" d="m1216.8,197.79h7.27v-61.91h-7.27v-7.6h27.98c24.45,0,38.66,16.08,38.66,38.55,0,23.9-14.21,38.55-38.66,38.55h-27.98v-7.6Zm27.98-.33c18.29,0,29.52-11.24,29.52-30.62s-11.02-30.51-29.52-30.51h-11.79v61.14h11.79Z"/>
      <path class="cls-1" d="m1299.96,128.29h43.95v8.15h-35.03v25.67h30.18v8.04h-30.18v27.21h36.24v8.04h-45.16v-77.11Z"/>
      <path class="cls-1" d="m1355.58,182.48h8.92c0,8.92,7.27,16.08,18.95,16.08,10.13,0,17.4-4.96,17.4-13,0-24.12-42.63-7.27-42.63-38.11,0-11.02,9.14-20.6,24.67-20.6,11.68,0,25.34,6.39,25.34,22.36h-9.14c0-8.81-5.84-14.21-16.3-14.21s-15.64,6.06-15.64,12.45c0,21.04,42.74,6.39,42.74,37.56,0,12.12-9.91,21.81-26.77,21.81-15.31,0-27.54-10.02-27.54-24.34Z"/>
      <path class="cls-1" d="m1425.31,197.68h11.46v-61.69h-11.46v-7.71h31.83v7.71h-11.46v61.69h11.46v7.71h-31.83v-7.71Z"/>
      <path class="cls-1" d="m1470.36,166.84c0-22.69,16.74-39.99,39.1-39.99,17.18,0,30.62,10.46,35.69,25h-9.91c-4.08-10.02-13.88-16.63-25.78-16.63-17.07,0-29.85,13.55-29.85,31.61s13,31.61,30.07,31.61c11.9,0,23.68-5.95,27.54-21.37h-23.57v-7.82h34.15c-3.52,27.76-20.71,37.56-38.22,37.56-22.36,0-39.21-17.07-39.21-39.99Z"/>
      <path class="cls-1" d="m1564.31,128.29h14.65l34.81,68.96h.66v-68.96h8.81v77.11h-14.98l-34.37-68.96h-.66v68.96h-8.92v-77.11Z"/>
      <path class="cls-1" d="m1676.11,128.29h24.45c15.75,0,25.11,9.03,25.11,22.47,0,11.46-6.28,20.49-18.29,22.69l20.71,31.94h-10.79l-19.28-31.17h-13v31.17h-8.92v-77.11Zm24.45,38c9.03,0,15.86-5.29,15.86-15.42,0-8.15-5.51-14.65-16.41-14.65h-14.98v30.07h15.53Z"/>
      <path class="cls-1" d="m1743.52,128.29h43.95v8.15h-35.03v25.67h30.18v8.04h-30.18v27.21h36.24v8.04h-45.16v-77.11Z"/>
      <path class="cls-1" d="m1805.2,128.29h14.65l34.81,68.96h.66v-68.96h8.81v77.11h-14.98l-34.37-68.96h-.66v68.96h-8.92v-77.11Z"/>
      <path class="cls-1" d="m1880.64,166.84c0-22.69,16.96-39.99,39.32-39.99s39.33,17.51,39.33,39.99-16.96,39.99-39.43,39.99-39.21-17.07-39.21-39.99Zm69.4,0c0-18.07-13-31.61-30.07-31.61s-30.07,13.55-30.07,31.61,13,31.61,30.07,31.61,30.07-13.33,30.07-31.61Z"/>
      <path class="cls-1" d="m1967,128.29h9.58l23.68,68.96h.66l24.23-68.96h10.02l-28.09,77.11h-12.67l-27.43-77.11Z"/>
      <path class="cls-1" d="m2088.93,187.11h-37.67l-6.72,18.29h-9.36l28.75-77.11h12.67l28.42,77.11h-9.36l-6.72-18.29Zm-2.97-8.15l-15.53-42.52h-.66l-15.53,42.52h31.72Z"/>
      <path class="cls-1" d="m2127.48,136.44h-22.47v-8.15h53.87v8.15h-22.47v68.96h-8.92v-68.96Z"/>
      <path class="cls-1" d="m2172.09,197.68h11.46v-61.69h-11.46v-7.71h31.83v7.71h-11.46v61.69h11.46v7.71h-31.83v-7.71Z"/>
      <path class="cls-1" d="m2217.14,166.84c0-22.69,16.96-39.99,39.32-39.99s39.33,17.51,39.33,39.99-16.96,39.99-39.43,39.99-39.21-17.07-39.21-39.99Zm69.4,0c0-18.07-13-31.61-30.07-31.61s-30.07,13.55-30.07,31.61,13,31.61,30.07,31.61,30.07-13.33,30.07-31.61Z"/>
      <path class="cls-1" d="m2312.31,128.29h14.65l34.81,68.96h.66v-68.96h8.81v77.11h-14.98l-34.37-68.96h-.66v68.96h-8.92v-77.11Z"/>
      <path class="cls-1" d="m2387.2,182.48h8.92c0,8.92,7.27,16.08,18.95,16.08,10.13,0,17.4-4.96,17.4-13,0-24.12-42.63-7.27-42.63-38.11,0-11.02,9.14-20.6,24.67-20.6,11.68,0,25.34,6.39,25.34,22.36h-9.14c0-8.81-5.84-14.21-16.3-14.21s-15.64,6.06-15.64,12.45c0,21.04,42.74,6.39,42.74,37.56,0,12.12-9.91,21.81-26.77,21.81-15.31,0-27.54-10.02-27.54-24.34Z"/>
      <path class="cls-1" d="m1217.91,329.86h11.46v-61.69h-11.46v-7.71h31.83v7.71h-11.46v61.69h11.46v7.71h-31.83v-7.71Z"/>
      <path class="cls-1" d="m1270.66,260.46h14.65l34.81,68.96h.66v-68.96h8.81v77.11h-14.98l-34.37-68.96h-.66v68.96h-8.92v-77.11Z"/>
      <path class="cls-1" d="m1342.81,260.46h9.58l23.68,68.96h.66l24.23-68.96h10.02l-28.09,77.11h-12.67l-27.43-77.11Z"/>
      <path class="cls-1" d="m1424.21,260.46h43.95v8.15h-35.03v25.67h30.18v8.04h-30.18v27.21h36.24v8.04h-45.16v-77.11Z"/>
      <path class="cls-1" d="m1479.83,314.66h8.92c0,8.92,7.27,16.08,18.95,16.08,10.13,0,17.4-4.96,17.4-13,0-24.12-42.63-7.27-42.63-38.11,0-11.02,9.14-20.6,24.67-20.6,11.68,0,25.34,6.39,25.34,22.36h-9.14c0-8.81-5.84-14.21-16.3-14.21s-15.64,6.06-15.64,12.45c0,21.04,42.74,6.39,42.74,37.56,0,12.12-9.91,21.81-26.77,21.81-15.31,0-27.54-10.02-27.54-24.34Z"/>
      <path class="cls-1" d="m1565.41,268.61h-22.47v-8.15h53.87v8.15h-22.47v68.96h-8.92v-68.96Z"/>
      <path class="cls-1" d="m1611.12,260.46h15.31l22.14,68.96h.66l22.14-68.96h15.31v77.11h-8.59v-68.96h-.66l-22.36,68.96h-12.34l-22.36-68.96h-.66v68.96h-8.59v-77.11Z"/>
      <path class="cls-1" d="m1708.71,260.46h43.95v8.15h-35.03v25.67h30.18v8.04h-30.18v27.21h36.24v8.04h-45.16v-77.11Z"/>
      <path class="cls-1" d="m1770.39,260.46h14.65l34.81,68.96h.66v-68.96h8.81v77.11h-14.98l-34.37-68.96h-.66v68.96h-8.92v-77.11Z"/>
      <path class="cls-1" d="m1866.11,268.61h-22.47v-8.15h53.87v8.15h-22.47v68.96h-8.92v-68.96Z"/>
    </g>
  </g>
</svg>